<mxfile host="app.diagrams.net" modified="2023-11-16T02:16:50.250Z" agent="Mozilla/5.0 (Windows NT 10.0; Win64; x64) AppleWebKit/537.36 (KHTML, like Gecko) Chrome/119.0.0.0 Safari/537.36 Edg/119.0.0.0" etag="2drJp6jwPUJbrZLoWFFc" version="22.1.2" type="github">
  <diagram name="Page-1" id="xV-gRT1Iv7v6lI4ZbSDj">
    <mxGraphModel dx="1426" dy="789" grid="1" gridSize="10" guides="1" tooltips="1" connect="1" arrows="1" fold="1" page="1" pageScale="1" pageWidth="850" pageHeight="1100" math="0" shadow="0">
      <root>
        <mxCell id="0" />
        <mxCell id="1" parent="0" />
        <mxCell id="b7p5eAXA6PUHGq_Ljgc6-9" style="rounded=0;orthogonalLoop=1;jettySize=auto;html=1;exitX=0;exitY=1;exitDx=0;exitDy=0;entryX=0.5;entryY=0;entryDx=0;entryDy=0;strokeWidth=5;strokeColor=#C06821;" edge="1" parent="1" source="b7p5eAXA6PUHGq_Ljgc6-1" target="b7p5eAXA6PUHGq_Ljgc6-2">
          <mxGeometry relative="1" as="geometry" />
        </mxCell>
        <mxCell id="b7p5eAXA6PUHGq_Ljgc6-10" style="rounded=0;orthogonalLoop=1;jettySize=auto;html=1;exitX=1;exitY=1;exitDx=0;exitDy=0;entryX=0.5;entryY=0;entryDx=0;entryDy=0;strokeWidth=5;strokeColor=#c06821;" edge="1" parent="1" source="b7p5eAXA6PUHGq_Ljgc6-1" target="b7p5eAXA6PUHGq_Ljgc6-3">
          <mxGeometry relative="1" as="geometry" />
        </mxCell>
        <mxCell id="b7p5eAXA6PUHGq_Ljgc6-1" value="&lt;font style=&quot;font-size: 24px;&quot;&gt;Battery&lt;/font&gt;" style="ellipse;whiteSpace=wrap;html=1;fillColor=#dae8fc;strokeColor=#6c8ebf;" vertex="1" parent="1">
          <mxGeometry x="190" y="200" width="120" height="80" as="geometry" />
        </mxCell>
        <mxCell id="b7p5eAXA6PUHGq_Ljgc6-2" value="&lt;font style=&quot;font-size: 24px;&quot;&gt;Radio&lt;/font&gt;" style="ellipse;whiteSpace=wrap;html=1;fillColor=#dae8fc;strokeColor=#6c8ebf;" vertex="1" parent="1">
          <mxGeometry x="70" y="350" width="120" height="80" as="geometry" />
        </mxCell>
        <mxCell id="b7p5eAXA6PUHGq_Ljgc6-11" style="rounded=0;orthogonalLoop=1;jettySize=auto;html=1;exitX=1;exitY=1;exitDx=0;exitDy=0;entryX=0;entryY=0;entryDx=0;entryDy=0;strokeWidth=5;strokeColor=#c06821;" edge="1" parent="1" source="b7p5eAXA6PUHGq_Ljgc6-3" target="b7p5eAXA6PUHGq_Ljgc6-5">
          <mxGeometry relative="1" as="geometry" />
        </mxCell>
        <mxCell id="b7p5eAXA6PUHGq_Ljgc6-3" value="&lt;font style=&quot;font-size: 24px;&quot;&gt;Ignition&lt;/font&gt;" style="ellipse;whiteSpace=wrap;html=1;fillColor=#dae8fc;strokeColor=#6c8ebf;" vertex="1" parent="1">
          <mxGeometry x="310" y="350" width="120" height="80" as="geometry" />
        </mxCell>
        <mxCell id="b7p5eAXA6PUHGq_Ljgc6-13" style="rounded=0;orthogonalLoop=1;jettySize=auto;html=1;exitX=0;exitY=1;exitDx=0;exitDy=0;entryX=1;entryY=0;entryDx=0;entryDy=0;strokeWidth=5;strokeColor=#C06821;" edge="1" parent="1" source="b7p5eAXA6PUHGq_Ljgc6-4" target="b7p5eAXA6PUHGq_Ljgc6-5">
          <mxGeometry relative="1" as="geometry" />
        </mxCell>
        <mxCell id="b7p5eAXA6PUHGq_Ljgc6-4" value="&lt;font style=&quot;font-size: 24px;&quot;&gt;Gas&lt;/font&gt;" style="ellipse;whiteSpace=wrap;html=1;fillColor=#dae8fc;strokeColor=#6c8ebf;" vertex="1" parent="1">
          <mxGeometry x="690" y="350" width="120" height="80" as="geometry" />
        </mxCell>
        <mxCell id="b7p5eAXA6PUHGq_Ljgc6-12" style="rounded=0;orthogonalLoop=1;jettySize=auto;html=1;exitX=0.5;exitY=1;exitDx=0;exitDy=0;entryX=0.5;entryY=0;entryDx=0;entryDy=0;strokeWidth=5;strokeColor=#C06821;" edge="1" parent="1" source="b7p5eAXA6PUHGq_Ljgc6-5" target="b7p5eAXA6PUHGq_Ljgc6-6">
          <mxGeometry relative="1" as="geometry" />
        </mxCell>
        <mxCell id="b7p5eAXA6PUHGq_Ljgc6-5" value="&lt;font style=&quot;font-size: 24px;&quot;&gt;Start&lt;/font&gt;" style="ellipse;whiteSpace=wrap;html=1;fillColor=#d5e8d4;strokeColor=#82b366;" vertex="1" parent="1">
          <mxGeometry x="510" y="470" width="120" height="80" as="geometry" />
        </mxCell>
        <mxCell id="b7p5eAXA6PUHGq_Ljgc6-6" value="&lt;font style=&quot;font-size: 24px;&quot;&gt;Move&lt;/font&gt;" style="ellipse;whiteSpace=wrap;html=1;fillColor=#dae8fc;strokeColor=#6c8ebf;" vertex="1" parent="1">
          <mxGeometry x="510" y="630" width="120" height="80" as="geometry" />
        </mxCell>
        <mxCell id="b7p5eAXA6PUHGq_Ljgc6-16" style="rounded=0;orthogonalLoop=1;jettySize=auto;html=1;exitX=0.5;exitY=1;exitDx=0;exitDy=0;strokeColor=#C06821;strokeWidth=5;" edge="1" parent="1" source="b7p5eAXA6PUHGq_Ljgc6-7" target="b7p5eAXA6PUHGq_Ljgc6-5">
          <mxGeometry relative="1" as="geometry" />
        </mxCell>
        <mxCell id="b7p5eAXA6PUHGq_Ljgc6-7" value="&lt;font style=&quot;font-size: 18px;&quot;&gt;Starter&lt;br&gt;Motor&lt;br&gt;Working&lt;/font&gt;" style="ellipse;whiteSpace=wrap;html=1;fillColor=#dae8fc;strokeColor=#6c8ebf;" vertex="1" parent="1">
          <mxGeometry x="510" y="200" width="120" height="80" as="geometry" />
        </mxCell>
        <mxCell id="b7p5eAXA6PUHGq_Ljgc6-14" style="rounded=0;orthogonalLoop=1;jettySize=auto;html=1;exitX=0;exitY=1;exitDx=0;exitDy=0;entryX=1;entryY=0;entryDx=0;entryDy=0;strokeWidth=5;strokeColor=#C06821;" edge="1" parent="1" source="b7p5eAXA6PUHGq_Ljgc6-8" target="b7p5eAXA6PUHGq_Ljgc6-1">
          <mxGeometry relative="1" as="geometry" />
        </mxCell>
        <mxCell id="b7p5eAXA6PUHGq_Ljgc6-15" style="rounded=0;orthogonalLoop=1;jettySize=auto;html=1;exitX=1;exitY=1;exitDx=0;exitDy=0;entryX=0;entryY=0;entryDx=0;entryDy=0;strokeWidth=5;strokeColor=#C06821;" edge="1" parent="1" source="b7p5eAXA6PUHGq_Ljgc6-8" target="b7p5eAXA6PUHGq_Ljgc6-7">
          <mxGeometry relative="1" as="geometry" />
        </mxCell>
        <mxCell id="b7p5eAXA6PUHGq_Ljgc6-8" value="&lt;font style=&quot;font-size: 24px;&quot;&gt;Icy Weather&lt;/font&gt;" style="ellipse;whiteSpace=wrap;html=1;fillColor=#dae8fc;strokeColor=#6c8ebf;" vertex="1" parent="1">
          <mxGeometry x="365" y="90" width="120" height="80" as="geometry" />
        </mxCell>
      </root>
    </mxGraphModel>
  </diagram>
</mxfile>
